# xmcd
# 
# Track frame offsets:
#     187
#     38712
#     111467
#     206945
#     279745
# 
# Disc length: 4478
# 
# Revision: 1
# Processed by: cddbd v1.5.2PL0 Copyright (c) Steve Scherf et al.
# Submitted via: BonkEnc v1.0.8
# 
DISCID=4d117c05
DTITLE=Mike Westbrook - On Duke's Birthday
DYEAR=1984
DGENRE=Big Band
TTITLE0=Checking in at Hotel Le Priere
TTITLE1=On Duke's Birthday 1
TTITLE2=East Stratford Too-Doo
TTITLE3=On Duke's Birthday 2
TTITLE4=Music Is ...
EXTD=YEAR: 1989
EXTT0=
EXTT1=
EXTT2=
EXTT3=
EXTT4=
PLAYORDER=
